{"glyphs":{":":{"x_min":0,"x_max":285,"ha":285,"o":"m 57 70 q 57 111 79 132 q 101 153 143 153 q 184 153 206 131 q 228 110 228 70 q 228 31 206 9 q 183 -13 143 -13 q 102 -13 80 9 q 57 30 57 70 z m 57 473 q 57 514 79 535 q 101 556 143 556 q 184 556 206 535 q 228 513 228 473 q 228 434 205 412 q 183 390 143 390 q 102 390 80 412 q 57 433 57 473 z"},"$":{"x_min":0,"x_max":571,"ha":571,"o":"m 533 223 q 533 146 477 98 q 421 51 320 42 l 320 -58 l 253 -58 l 253 40 q 134 42 44 82 l 44 211 q 86 190 146 174 q 206 158 253 155 l 253 306 l 220 319 q 124 357 83 402 q 43 446 43 512 q 43 583 98 629 q 154 674 253 684 l 253 759 l 320 759 l 320 686 q 432 681 522 641 l 476 527 q 400 558 320 565 l 320 421 q 415 384 455 357 q 496 331 514 298 q 533 266 533 223 z m 386 216 q 386 236 370 250 q 353 265 320 280 l 320 158 q 386 169 386 216 z m 190 512 q 190 491 205 477 q 220 463 253 448 l 253 563 q 190 554 190 512 z"},"?":{"x_min":0,"x_max":477,"ha":477,"o":"m 135 237 l 135 273 q 135 320 155 354 q 175 389 228 428 q 279 465 296 488 q 312 511 312 539 q 312 571 289 587 q 265 604 223 604 q 150 604 56 556 l 3 663 q 112 724 234 724 q 334 724 394 676 q 453 627 453 547 q 453 493 429 454 q 404 415 336 366 q 289 332 277 313 q 264 295 264 266 l 264 237 z m 119 70 q 119 111 141 132 q 163 153 205 153 q 246 153 268 131 q 290 110 290 70 q 290 31 268 9 q 245 -13 205 -13 q 164 -13 142 9 q 119 30 119 70 z"},"<":{"x_min":0,"x_max":571,"ha":571,"o":"m 528 99 l 43 313 l 43 383 l 528 625 l 528 508 l 194 353 l 528 216 z"},"'":{"x_min":0,"x_max":266,"ha":266,"o":"m 201 714 l 181 456 l 85 456 l 65 714 z"},"=":{"x_min":0,"x_max":571,"ha":571,"o":"m 43 393 l 43 500 l 528 500 l 528 393 z m 43 204 l 43 311 l 528 311 l 528 204 z"},"a":{"x_min":0,"x_max":604,"ha":604,"o":"m 425 0 l 396 74 l 392 74 q 354 27 315 9 q 275 -10 211 -10 q 132 -10 87 35 q 42 80 42 163 q 42 250 103 291 q 164 333 286 337 l 381 340 l 381 364 q 381 447 296 447 q 230 447 142 407 l 93 508 q 187 557 302 557 q 412 557 470 509 q 529 461 529 364 l 529 0 z m 381 253 l 323 251 q 258 249 227 228 q 195 206 195 162 q 195 99 267 99 q 319 99 350 129 q 381 159 381 208 z"},"L":{"x_min":0,"x_max":565,"ha":565,"o":"m 90 0 l 90 714 l 241 714 l 241 125 l 531 125 l 531 0 z"},"3":{"x_min":0,"x_max":571,"ha":571,"o":"m 511 554 q 511 487 471 440 q 430 394 357 376 l 357 373 q 443 362 488 321 q 532 279 532 208 q 532 105 458 48 q 383 -10 244 -10 q 128 -10 38 29 l 38 157 q 80 136 129 123 q 179 110 228 110 q 303 110 338 135 q 374 161 374 217 q 374 267 333 288 q 292 309 202 309 l 148 309 l 148 425 l 203 425 q 286 425 324 447 q 363 468 363 521 q 363 602 261 602 q 226 602 190 590 q 153 579 109 550 l 39 654 q 137 724 272 724 q 383 724 447 679 q 511 634 511 554 z"},";":{"x_min":0,"x_max":290,"ha":290,"o":"m 217 116 l 224 105 q 199 6 138 -129 l 31 -129 q 62 1 80 116 z m 57 473 q 57 514 79 535 q 101 556 143 556 q 184 556 206 535 q 228 513 228 473 q 228 434 205 412 q 183 390 143 390 q 102 390 80 412 q 57 433 57 473 z"},"J":{"x_min":0,"x_max":331,"ha":331,"o":"m 15 -210 q -36 -210 -74 -199 l -74 -73 q -35 -83 -3 -83 q 47 -83 68 -52 q 90 -21 90 45 l 90 714 l 241 714 l 241 46 q 241 -79 184 -145 q 127 -210 15 -210 z"},"V":{"x_min":0,"x_max":650,"ha":650,"o":"m 497 714 l 650 714 l 407 0 l 242 0 l 0 714 l 153 714 l 287 289 q 298 251 310 201 q 322 151 325 132 q 331 177 362 289 z"},"\"":{"x_min":0,"x_max":472,"ha":472,"o":"m 201 714 l 181 456 l 85 456 l 65 714 z m 407 714 l 387 456 l 291 456 l 271 714 z"},"7":{"x_min":0,"x_max":571,"ha":571,"o":"m 111 0 l 379 586 l 27 586 l 27 713 l 539 713 l 539 618 l 269 0 z"},"S":{"x_min":0,"x_max":551,"ha":551,"o":"m 511 198 q 511 102 442 46 q 372 -10 248 -10 q 134 -10 46 33 l 46 174 q 118 142 168 128 q 218 115 260 115 q 310 115 336 134 q 363 153 363 191 q 363 212 351 228 q 339 245 317 260 q 294 275 224 308 q 159 339 126 367 q 93 396 74 433 q 54 471 54 521 q 54 616 118 670 q 183 724 296 724 q 352 724 402 711 q 453 698 508 674 l 459 556 q 402 580 365 589 q 327 598 291 598 q 248 598 225 578 q 202 558 202 526 q 202 506 211 491 q 221 476 241 462 q 261 448 337 412 q 437 364 474 316 q 511 268 511 198 z"},"}":{"x_min":0,"x_max":394,"ha":394,"o":"m 254 -22 q 254 -77 234 -104 q 214 -132 168 -145 q 122 -158 40 -158 l 40 -48 q 88 -47 107 -30 q 125 -14 125 21 l 125 167 l 125 172 q 125 214 154 240 q 183 267 239 275 l 239 281 q 128 297 125 389 l 125 535 q 125 569 107 586 q 89 603 40 604 l 40 714 q 122 714 168 701 q 214 688 234 660 q 254 632 254 578 l 254 423 l 254 418 q 254 377 284 356 q 314 336 379 336 l 379 219 q 318 219 286 199 q 254 179 254 132 z"},"Z":{"x_min":0,"x_max":579,"ha":579,"o":"m 555 0 l 24 0 l 24 98 l 366 589 l 33 589 l 33 714 l 546 714 l 546 616 l 204 125 l 555 125 z"},"x":{"x_min":0,"x_max":578,"ha":578,"o":"m 190 279 l 14 546 l 183 546 l 289 372 l 396 546 l 565 546 l 387 279 l 573 0 l 404 0 l 289 187 l 174 0 l 5 0 z"},")":{"x_min":0,"x_max":339,"ha":339,"o":"m 299 274 q 299 146 261 35 q 223 -76 152 -158 l 31 -158 q 97 -68 133 43 q 169 155 169 275 q 169 394 134 507 q 99 620 30 714 l 152 714 q 224 628 261 515 q 299 402 299 274 z"},"&":{"x_min":0,"x_max":750,"ha":750,"o":"m 750 0 l 566 0 l 510 55 q 417 -10 299 -10 q 180 -10 110 45 q 40 100 40 193 q 40 260 70 307 q 99 354 171 395 q 134 437 118 475 q 101 514 101 559 q 101 633 158 679 q 215 724 310 724 q 401 724 455 682 q 510 640 510 569 q 510 511 476 463 q 442 415 367 371 l 506 236 q 541 293 566 383 l 721 383 q 704 317 673 254 q 642 191 603 143 z m 197 207 q 197 165 228 140 q 260 115 309 115 q 371 115 420 145 l 258 306 q 229 285 213 261 q 197 238 197 207 z m 372 553 q 372 579 354 594 q 337 609 309 609 q 276 609 258 593 q 239 578 239 549 q 239 506 285 454 q 327 478 350 500 q 372 523 372 553 z"},"_":{"x_min":0,"x_max":411,"ha":411,"o":"m 413 -158 l -2 -158 l -2 -90 l 413 -90 z"},"v":{"x_min":0,"x_max":569,"ha":569,"o":"m 208 0 l 0 546 l 156 546 l 261 235 q 279 176 283 123 l 286 123 q 289 170 308 235 l 413 546 l 569 546 l 361 0 z"},"O":{"x_min":0,"x_max":796,"ha":796,"o":"m 738 358 q 738 181 650 85 q 562 -10 398 -10 q 234 -10 146 85 q 58 181 58 359 q 58 537 146 631 q 234 725 399 725 q 563 725 651 630 q 738 536 738 358 z m 217 358 q 217 238 262 178 q 308 117 398 117 q 579 117 579 358 q 579 599 399 599 q 309 599 263 538 q 217 478 217 358 z"},"(":{"x_min":0,"x_max":339,"ha":339,"o":"m 40 274 q 40 403 78 516 q 116 629 187 714 l 309 714 q 240 620 205 507 q 170 394 170 275 q 170 155 206 44 q 242 -68 308 -158 l 187 -158 q 115 -75 78 36 q 40 146 40 274 z"},"C":{"x_min":0,"x_max":637,"ha":637,"o":"m 393 598 q 308 598 261 534 q 214 470 214 355 q 214 116 393 116 q 468 116 575 154 l 575 27 q 487 -10 379 -10 q 223 -10 141 85 q 58 179 58 356 q 58 467 99 551 q 139 635 215 679 q 291 724 393 724 q 497 724 602 674 l 553 551 q 513 570 473 584 q 432 598 393 598 z"},"W":{"x_min":0,"x_max":967,"ha":967,"o":"m 785 0 l 613 0 l 516 375 q 511 395 498 458 q 485 521 483 542 q 480 516 468 457 q 457 399 450 374 l 354 0 l 182 0 l 0 714 l 149 714 l 240 324 q 264 216 275 137 q 278 165 288 223 q 299 282 308 314 l 412 714 l 555 714 l 659 314 q 666 287 676 232 q 687 177 692 137 q 697 175 708 232 q 718 289 727 324 l 818 714 l 967 714 z"},"A":{"x_min":0,"x_max":690,"ha":690,"o":"m 527 0 l 475 170 l 215 170 l 163 0 l 0 0 l 252 717 l 437 717 l 690 0 z m 439 297 q 367 528 358 558 q 349 588 345 606 q 329 543 253 297 z"},"f":{"x_min":0,"x_max":387,"ha":387,"o":"m 380 434 l 251 434 l 251 0 l 102 0 l 102 434 l 20 434 l 20 506 l 102 546 l 102 586 q 102 679 148 722 q 194 765 295 765 q 372 765 432 742 l 394 633 q 349 647 311 647 q 279 647 265 628 q 251 609 251 580 l 251 546 l 380 546 z"},"Q":{"x_min":0,"x_max":796,"ha":796,"o":"m 738 358 q 738 232 693 147 q 648 62 562 22 l 734 -170 l 540 -170 l 409 -10 l 398 -10 q 234 -10 146 85 q 58 181 58 359 q 58 537 146 631 q 234 725 399 725 q 563 725 651 630 q 738 536 738 358 z m 217 358 q 217 238 262 178 q 308 117 398 117 q 579 117 579 358 q 579 599 399 599 q 309 599 263 538 q 217 478 217 358 z"},"w":{"x_min":0,"x_max":856,"ha":856,"o":"m 527 0 l 485 191 l 428 432 l 425 432 l 325 0 l 165 0 l 10 546 l 158 546 l 221 304 q 236 239 252 125 l 255 125 q 257 162 272 243 l 280 284 l 347 546 l 511 546 l 575 284 q 577 273 581 252 q 585 231 589 208 q 593 184 596 161 q 600 139 600 125 l 603 125 q 607 160 619 221 q 630 283 635 304 l 700 546 l 846 546 l 689 0 z"},"-":{"x_min":0,"x_max":322,"ha":322,"o":"m 30 207 l 30 329 l 292 329 l 292 207 z"},"E":{"x_min":0,"x_max":560,"ha":560,"o":"m 501 0 l 90 0 l 90 714 l 501 714 l 501 590 l 241 590 l 241 433 l 483 433 l 483 309 l 241 309 l 241 125 l 501 125 z"},"s":{"x_min":0,"x_max":497,"ha":497,"o":"m 459 162 q 459 78 401 34 q 342 -10 226 -10 q 167 -10 125 -2 q 83 6 46 22 l 46 145 q 87 125 139 112 q 191 99 231 99 q 312 99 312 146 q 312 164 301 175 q 291 186 264 199 q 238 213 194 232 q 131 258 101 281 q 72 303 58 332 q 45 361 45 404 q 45 477 101 516 q 158 556 261 556 q 360 556 453 513 l 408 406 q 367 423 332 435 q 296 446 259 446 q 193 446 193 410 q 193 390 214 375 q 235 361 307 332 q 371 306 401 284 q 431 261 445 232 q 459 203 459 162 z"},">":{"x_min":0,"x_max":571,"ha":571,"o":"m 43 216 l 377 353 l 43 508 l 43 625 l 528 383 l 528 313 l 43 99 z"},"l":{"x_min":0,"x_max":305,"ha":305,"o":"m 227 0 l 78 0 l 78 760 l 227 760 z"},"8":{"x_min":0,"x_max":571,"ha":571,"o":"m 286 723 q 389 723 451 677 q 514 630 514 551 q 514 496 484 453 q 454 411 386 377 q 466 334 501 287 q 536 241 536 185 q 536 97 467 44 q 398 -10 286 -10 q 169 -10 102 40 q 35 90 35 181 q 35 242 68 290 q 100 337 172 373 q 111 412 84 456 q 57 500 57 552 q 57 628 121 676 q 184 723 286 723 z m 175 190 q 175 148 204 125 q 233 101 284 101 q 340 101 368 125 q 396 149 396 189 q 396 222 368 250 q 341 279 279 311 q 175 263 175 190 z m 285 613 q 247 613 223 593 q 199 573 199 540 q 199 511 218 488 q 237 464 286 440 q 334 462 353 486 q 372 509 372 540 q 372 574 348 593 q 323 613 285 613 z"},"\\":{"x_min":0,"x_max":413,"ha":413,"o":"m 141 714 l 407 0 l 272 0 l 6 714 z"},"e":{"x_min":0,"x_max":591,"ha":591,"o":"m 304 450 q 257 450 230 420 q 203 390 199 335 l 408 335 q 407 390 379 420 q 352 450 304 450 z m 325 -10 q 193 -10 119 63 q 45 136 45 269 q 45 406 114 481 q 182 556 303 556 q 419 556 483 490 q 548 424 548 308 l 548 236 l 196 236 q 198 172 233 137 q 269 101 332 101 q 381 101 425 111 q 469 122 517 144 l 517 29 q 478 9 434 0 q 389 -10 325 -10 z"},"b":{"x_min":0,"x_max":633,"ha":633,"o":"m 382 556 q 479 556 533 481 q 588 405 588 274 q 588 139 531 64 q 475 -10 378 -10 q 282 -10 227 60 l 217 60 l 192 0 l 78 0 l 78 760 l 227 760 l 227 583 q 227 549 221 475 l 227 475 q 279 556 382 556 z m 334 437 q 279 437 253 403 q 228 369 227 291 l 227 275 q 227 187 253 149 q 279 111 336 111 q 382 111 409 153 q 436 195 436 276 q 436 356 409 397 q 381 437 334 437 z"},"%":{"x_min":0,"x_max":901,"ha":901,"o":"m 154 500 q 154 438 165 407 q 176 377 200 377 q 247 377 247 500 q 247 622 200 622 q 176 622 165 592 q 154 562 154 500 z m 370 501 q 370 389 327 332 q 283 276 199 276 q 119 276 75 334 q 31 392 31 501 q 31 724 199 724 q 282 724 326 666 q 370 608 370 501 z m 706 714 l 310 0 l 193 0 l 589 714 z m 654 215 q 654 153 665 122 q 676 92 700 92 q 747 92 747 215 q 747 337 700 337 q 676 337 665 307 q 654 277 654 215 z m 870 216 q 870 104 827 48 q 783 -9 699 -9 q 619 -9 575 49 q 531 107 531 216 q 531 439 699 439 q 782 439 826 381 q 870 323 870 216 z"},"m":{"x_min":0,"x_max":982,"ha":982,"o":"m 567 0 l 418 0 l 418 319 q 418 378 398 407 q 378 437 336 437 q 279 437 253 395 q 227 353 227 257 l 227 0 l 78 0 l 78 546 l 192 546 l 212 476 l 220 476 q 242 514 284 535 q 325 556 379 556 q 501 556 545 476 l 558 476 q 580 514 623 535 q 666 556 719 556 q 812 556 860 509 q 907 461 907 356 l 907 0 l 758 0 l 758 319 q 758 378 738 407 q 718 437 676 437 q 621 437 594 398 q 567 359 567 274 z"},"#":{"x_min":0,"x_max":646,"ha":646,"o":"m 488 412 l 465 299 l 591 299 l 591 198 l 446 198 l 408 0 l 301 0 l 339 198 l 244 198 l 207 0 l 102 0 l 138 198 l 22 198 l 22 299 l 157 299 l 180 412 l 57 412 l 57 514 l 198 514 l 236 713 l 343 713 l 305 514 l 402 514 l 440 713 l 545 713 l 507 514 l 624 514 l 624 412 z m 263 299 l 359 299 l 382 412 l 286 412 z"},",":{"x_min":0,"x_max":290,"ha":290,"o":"m 224 105 q 199 6 138 -129 l 31 -129 q 62 1 80 116 l 217 116 z"},"n":{"x_min":0,"x_max":657,"ha":657,"o":"m 582 0 l 433 0 l 433 319 q 433 378 412 407 q 391 437 345 437 q 283 437 255 395 q 227 354 227 257 l 227 0 l 78 0 l 78 546 l 192 546 l 212 476 l 220 476 q 245 516 289 536 q 333 556 388 556 q 483 556 533 505 q 582 453 582 356 z"},"h":{"x_min":0,"x_max":657,"ha":657,"o":"m 582 0 l 433 0 l 433 319 q 433 437 345 437 q 283 437 255 395 q 227 352 227 257 l 227 0 l 78 0 l 78 760 l 227 760 l 227 605 q 227 587 224 520 l 220 476 l 228 476 q 278 556 386 556 q 482 556 532 504 q 582 453 582 356 z"},"z":{"x_min":0,"x_max":488,"ha":488,"o":"m 458 0 l 27 0 l 27 88 l 280 432 l 42 432 l 42 546 l 449 546 l 449 449 l 203 114 l 458 114 z"},"B":{"x_min":0,"x_max":672,"ha":672,"o":"m 90 714 l 312 714 q 464 714 532 671 q 601 627 601 533 q 601 469 571 428 q 541 387 491 379 l 491 374 q 559 359 589 317 q 619 276 619 207 q 619 109 549 55 q 478 0 357 0 l 90 0 z m 241 431 l 329 431 q 391 431 418 450 q 446 469 446 513 q 446 554 416 572 q 386 590 321 590 l 241 590 z m 241 311 l 241 125 l 340 125 q 402 125 432 149 q 462 173 462 222 q 462 311 335 311 z"},"K":{"x_min":0,"x_max":664,"ha":664,"o":"m 664 0 l 492 0 l 305 301 l 241 255 l 241 0 l 90 0 l 90 714 l 241 714 l 241 387 l 301 471 l 494 714 l 662 714 l 413 398 z"},"R":{"x_min":0,"x_max":660,"ha":660,"o":"m 241 397 l 290 397 q 362 397 396 421 q 430 445 430 496 q 430 547 395 568 q 360 590 287 590 l 241 590 z m 241 274 l 241 0 l 90 0 l 90 714 l 298 714 q 443 714 513 661 q 583 608 583 500 q 583 437 548 388 q 514 339 450 311 q 611 70 660 0 l 492 0 l 322 274 z"},"T":{"x_min":0,"x_max":579,"ha":579,"o":"m 365 0 l 214 0 l 214 588 l 20 588 l 20 714 l 559 714 l 559 588 l 365 588 z"},"P":{"x_min":0,"x_max":628,"ha":628,"o":"m 241 378 l 291 378 q 361 378 396 406 q 430 433 430 486 q 430 539 401 564 q 372 590 310 590 l 241 590 z m 583 491 q 583 376 511 315 q 439 254 306 254 l 241 254 l 241 0 l 90 0 l 90 714 l 318 714 q 448 714 515 658 q 583 602 583 491 z"},"|":{"x_min":0,"x_max":551,"ha":551,"o":"m 222 757 l 329 757 l 329 -227 l 222 -227 z"},"t":{"x_min":0,"x_max":434,"ha":434,"o":"m 308 109 q 347 109 402 126 l 402 15 q 346 -10 265 -10 q 176 -10 135 35 q 94 81 94 171 l 94 434 l 23 434 l 23 497 l 105 547 l 148 662 l 243 662 l 243 546 l 396 546 l 396 434 l 243 434 l 243 171 q 243 139 261 124 q 279 109 308 109 z"},"M":{"x_min":0,"x_max":943,"ha":943,"o":"m 392 0 l 220 560 l 216 560 q 225 389 225 332 l 225 0 l 90 0 l 90 714 l 296 714 l 465 168 l 468 168 l 647 714 l 853 714 l 853 0 l 712 0 l 712 338 q 712 362 713 393 q 713 424 719 559 l 715 559 l 531 0 z"},"g":{"x_min":0,"x_max":565,"ha":565,"o":"m 553 546 l 553 470 l 468 448 q 491 412 491 366 q 491 278 430 229 q 369 180 260 180 l 233 182 l 211 184 q 188 167 188 145 q 188 113 270 113 l 363 113 q 453 113 500 74 q 547 36 547 -39 q 547 -135 467 -188 q 387 -240 238 -240 q 124 -240 63 -200 q 3 -161 3 -89 q 3 -40 34 -6 q 64 27 124 41 q 101 51 84 73 q 67 95 67 120 q 67 151 85 172 q 103 193 137 213 q 94 231 69 272 q 44 313 44 369 q 44 458 102 507 q 160 556 268 556 q 291 556 323 552 q 354 548 363 546 z m 132 -77 q 132 -108 161 -125 q 191 -143 244 -143 q 324 -143 370 -121 q 415 -99 415 -61 q 415 -30 388 -19 q 361 -7 305 -7 l 228 -7 q 187 -7 159 -26 q 132 -45 132 -77 z m 186 367 q 186 323 206 297 q 227 271 268 271 q 310 271 330 297 q 349 323 349 367 q 349 466 268 466 q 186 466 186 367 z"},"j":{"x_min":0,"x_max":305,"ha":305,"o":"m 34 -240 q -23 -240 -64 -228 l -64 -111 q -30 -120 6 -120 q 43 -120 61 -99 q 78 -78 78 -37 l 78 546 l 227 546 l 227 -59 q 227 -146 177 -193 q 126 -240 34 -240 z m 72 687 q 72 760 153 760 q 234 760 234 687 q 234 652 214 633 q 193 614 153 614 q 72 614 72 687 z"},"i":{"x_min":0,"x_max":305,"ha":305,"o":"m 72 687 q 72 760 153 760 q 234 760 234 687 q 234 652 214 633 q 193 614 153 614 q 72 614 72 687 z m 227 0 l 78 0 l 78 546 l 227 546 z"},"y":{"x_min":0,"x_max":569,"ha":569,"o":"m 0 546 l 163 546 l 266 239 q 279 199 284 144 l 287 144 q 292 194 308 239 l 409 546 l 569 546 l 338 -70 q 306 -155 247 -198 q 188 -240 110 -240 q 71 -240 34 -232 l 34 -114 q 61 -120 93 -120 q 132 -120 162 -96 q 191 -72 208 -23 l 217 4 z"},"@":{"x_min":0,"x_max":897,"ha":897,"o":"m 847 367 q 847 297 825 239 q 802 180 761 147 q 720 114 666 114 q 630 114 602 131 q 574 148 562 177 l 554 177 q 501 114 420 114 q 333 114 284 166 q 234 218 234 308 q 234 411 299 474 q 365 537 470 537 q 512 537 563 529 q 613 521 646 510 l 635 271 q 635 203 672 203 q 703 203 722 249 q 740 294 740 368 q 740 447 708 507 q 675 567 615 599 q 556 631 480 631 q 381 631 309 590 q 236 550 197 473 q 158 397 158 297 q 158 162 230 90 q 302 18 439 18 q 491 18 553 30 q 615 41 675 63 l 675 -31 q 570 -75 443 -75 q 257 -75 154 22 q 50 120 50 294 q 50 415 103 513 q 156 611 254 667 q 352 723 479 723 q 586 723 671 679 q 755 635 801 554 q 847 473 847 367 z m 347 306 q 347 203 431 203 q 475 203 498 234 q 521 265 526 335 l 532 443 q 507 448 476 448 q 415 448 381 410 q 347 372 347 306 z"},".":{"x_min":0,"x_max":285,"ha":285,"o":"m 57 70 q 57 111 79 132 q 101 153 143 153 q 184 153 206 131 q 228 110 228 70 q 228 31 206 9 q 183 -13 143 -13 q 102 -13 80 9 q 57 30 57 70 z"},"p":{"x_min":0,"x_max":633,"ha":633,"o":"m 378 -10 q 282 -10 227 60 l 219 60 q 227 -8 227 -19 l 227 -240 l 78 -240 l 78 546 l 199 546 l 220 475 l 227 475 q 279 556 382 556 q 479 556 533 481 q 588 407 588 274 q 588 187 562 122 q 537 58 489 24 q 442 -10 378 -10 z m 334 437 q 279 437 253 403 q 228 369 227 291 l 227 275 q 227 187 253 149 q 279 111 336 111 q 436 111 436 276 q 436 356 411 397 q 387 437 334 437 z"},"X":{"x_min":0,"x_max":667,"ha":667,"o":"m 667 0 l 494 0 l 328 270 l 162 0 l 0 0 l 237 368 l 15 714 l 182 714 l 336 457 l 487 714 l 650 714 l 426 360 z"},"*":{"x_min":0,"x_max":545,"ha":545,"o":"m 336 760 l 316 580 l 498 631 l 514 508 l 348 496 l 457 351 l 346 292 l 270 445 l 203 293 l 88 351 l 196 496 l 31 509 l 50 631 l 228 580 l 208 760 z"},"Y":{"x_min":0,"x_max":624,"ha":624,"o":"m 312 420 l 461 714 l 624 714 l 387 278 l 387 0 l 237 0 l 237 273 l 0 714 l 164 714 z"},"c":{"x_min":0,"x_max":514,"ha":514,"o":"m 300 -10 q 45 -10 45 270 q 45 409 114 483 q 184 556 313 556 q 408 556 483 519 l 439 404 q 404 418 374 427 q 343 436 313 436 q 197 436 197 271 q 197 111 313 111 q 356 111 393 122 q 429 134 466 158 l 466 31 q 430 8 393 -1 q 356 -10 300 -10 z"},"!":{"x_min":0,"x_max":286,"ha":286,"o":"m 203 237 l 84 237 l 59 714 l 228 714 z m 57 70 q 57 111 79 132 q 101 153 143 153 q 184 153 206 131 q 228 110 228 70 q 228 31 206 9 q 183 -13 143 -13 q 102 -13 80 9 q 57 30 57 70 z"},"/":{"x_min":0,"x_max":413,"ha":413,"o":"m 408 714 l 142 0 l 7 0 l 273 714 z"},"[":{"x_min":0,"x_max":331,"ha":331,"o":"m 306 -158 l 70 -158 l 70 714 l 306 714 l 306 611 l 197 611 l 197 -55 l 306 -55 z"},"6":{"x_min":0,"x_max":571,"ha":571,"o":"m 35 303 q 35 515 125 619 q 214 722 393 722 q 454 722 489 715 l 489 594 q 445 604 403 604 q 325 604 276 581 q 227 557 203 511 q 178 465 174 381 l 180 381 q 229 464 335 464 q 431 464 485 404 q 539 344 539 238 q 539 124 475 57 q 410 -10 296 -10 q 217 -10 158 27 q 99 63 67 134 q 35 204 35 303 z m 293 111 q 341 111 367 143 q 393 176 393 236 q 393 288 369 318 q 345 348 296 348 q 250 348 218 318 q 185 289 185 249 q 185 191 216 151 q 246 111 293 111 z"},"r":{"x_min":0,"x_max":454,"ha":454,"o":"m 383 556 q 413 556 433 552 l 422 412 q 404 417 378 417 q 307 417 267 380 q 227 344 227 278 l 227 0 l 78 0 l 78 546 l 191 546 l 213 454 l 220 454 q 246 500 289 528 q 332 556 383 556 z"},"2":{"x_min":0,"x_max":571,"ha":571,"o":"m 539 0 l 40 0 l 40 105 l 219 286 q 299 368 323 399 q 348 431 358 458 q 369 484 369 513 q 369 556 345 577 q 322 598 282 598 q 241 598 202 579 q 163 560 120 525 l 38 622 q 91 667 125 686 q 160 704 201 714 q 242 724 293 724 q 360 724 411 700 q 462 675 491 631 q 519 587 519 531 q 519 481 502 438 q 484 395 448 350 q 412 304 320 220 l 228 134 l 228 127 l 539 127 z"},"{":{"x_min":0,"x_max":394,"ha":394,"o":"m 140 132 q 140 174 108 197 q 76 219 15 219 l 15 336 q 77 336 108 357 q 140 379 140 419 l 140 423 l 140 578 q 140 653 188 683 q 235 714 354 714 l 354 604 q 306 603 287 585 q 269 568 269 535 l 269 389 q 266 297 155 281 l 155 275 q 269 258 269 171 l 269 167 l 269 21 q 269 -12 287 -29 q 305 -46 354 -48 l 354 -158 q 235 -158 188 -128 q 140 -97 140 -22 z"},"9":{"x_min":0,"x_max":571,"ha":571,"o":"m 536 409 q 536 198 447 94 q 358 -10 178 -10 q 115 -10 82 -3 l 82 118 q 123 108 168 108 q 244 108 292 130 q 341 152 367 200 q 393 248 397 331 l 391 331 q 363 285 326 267 q 289 248 233 248 q 140 248 86 308 q 32 368 32 474 q 32 589 97 656 q 163 722 275 722 q 354 722 413 685 q 473 648 504 577 q 536 507 536 409 z m 278 601 q 231 601 205 569 q 178 537 178 476 q 178 424 202 394 q 226 364 275 364 q 321 364 354 394 q 386 424 386 463 q 386 521 356 561 q 325 601 278 601 z"}," ":{"x_min":0,"x_max":260,"ha":260,"o":""},"I":{"x_min":0,"x_max":331,"ha":331,"o":"m 90 0 l 90 714 l 241 714 l 241 0 z"},"H":{"x_min":0,"x_max":765,"ha":765,"o":"m 675 0 l 524 0 l 524 308 l 241 308 l 241 0 l 90 0 l 90 714 l 241 714 l 241 434 l 524 434 l 524 714 l 675 714 z"},"4":{"x_min":0,"x_max":571,"ha":571,"o":"m 555 148 l 469 148 l 469 0 l 322 0 l 322 148 l 17 148 l 17 253 l 330 714 l 469 714 l 469 265 l 555 265 z m 322 265 l 322 386 q 322 417 324 474 q 327 532 328 541 l 324 541 q 306 501 281 463 l 150 265 z"},"~":{"x_min":0,"x_max":571,"ha":571,"o":"m 157 328 q 130 328 100 312 q 69 295 43 269 l 43 382 q 93 435 168 435 q 204 435 235 427 q 267 419 303 404 q 366 377 414 377 q 440 377 471 393 q 501 408 528 436 l 528 323 q 479 270 403 270 q 371 270 341 276 q 312 283 268 301 q 204 328 157 328 z"},"D":{"x_min":0,"x_max":740,"ha":740,"o":"m 682 364 q 682 188 582 94 q 481 0 292 0 l 90 0 l 90 714 l 314 714 q 489 714 585 622 q 682 529 682 364 z m 525 360 q 525 590 322 590 l 241 590 l 241 125 l 306 125 q 525 125 525 360 z"},"^":{"x_min":0,"x_max":532,"ha":532,"o":"m 4 254 l 218 718 l 288 718 l 530 254 l 413 254 l 256 568 l 119 254 z"},"0":{"x_min":0,"x_max":571,"ha":571,"o":"m 535 357 q 535 170 474 80 q 413 -10 285 -10 q 162 -10 99 83 q 36 176 36 357 q 36 546 97 635 q 158 725 285 725 q 409 725 472 631 q 535 538 535 357 z m 186 357 q 186 226 209 169 q 231 112 285 112 q 338 112 361 169 q 385 227 385 357 q 385 488 361 546 q 337 603 285 603 q 232 603 209 546 q 186 488 186 357 z"},"F":{"x_min":0,"x_max":549,"ha":549,"o":"m 239 0 l 90 0 l 90 714 l 499 714 l 499 590 l 239 590 l 239 406 l 481 406 l 481 282 l 239 282 z"},"`":{"x_min":0,"x_max":607,"ha":607,"o":"m 345 606 q 314 627 255 676 q 195 724 162 756 l 162 766 l 329 766 q 360 717 444 619 l 444 606 z"},"k":{"x_min":0,"x_max":620,"ha":620,"o":"m 221 297 l 286 380 l 439 546 l 607 546 l 390 309 l 620 0 l 448 0 l 291 221 l 227 170 l 227 0 l 78 0 l 78 760 l 227 760 l 227 421 l 219 297 z"},"u":{"x_min":0,"x_max":657,"ha":657,"o":"m 465 0 l 445 70 l 437 70 q 413 32 369 11 q 325 -10 269 -10 q 173 -10 124 42 q 75 93 75 190 l 75 546 l 224 546 l 224 227 q 224 168 245 138 q 266 109 312 109 q 375 109 402 151 q 430 192 430 289 l 430 546 l 579 546 l 579 0 z"},"]":{"x_min":0,"x_max":331,"ha":331,"o":"m 25 -55 l 134 -55 l 134 611 l 25 611 l 25 714 l 261 714 l 261 -158 l 25 -158 z"},"U":{"x_min":0,"x_max":756,"ha":756,"o":"m 671 714 l 671 252 q 671 173 635 113 q 600 54 533 22 q 466 -10 375 -10 q 237 -10 161 61 q 85 131 85 254 l 85 714 l 236 714 l 236 277 q 236 194 269 156 q 302 117 379 117 q 453 117 487 156 q 520 195 520 278 l 520 714 z"},"o":{"x_min":0,"x_max":619,"ha":619,"o":"m 197 274 q 197 193 223 151 q 250 110 310 110 q 370 110 396 151 q 422 192 422 274 q 422 355 396 396 q 369 436 309 436 q 250 436 223 396 q 197 355 197 274 z m 574 274 q 574 141 504 65 q 434 -10 308 -10 q 229 -10 169 25 q 109 59 77 124 q 45 188 45 274 q 45 408 115 482 q 185 556 311 556 q 390 556 450 522 q 510 488 542 424 q 574 360 574 274 z"},"N":{"x_min":0,"x_max":813,"ha":813,"o":"m 723 0 l 531 0 l 220 540 l 216 540 q 225 397 225 336 l 225 0 l 90 0 l 90 714 l 281 714 l 591 179 l 594 179 q 587 318 587 376 l 587 714 l 723 714 z"},"+":{"x_min":0,"x_max":571,"ha":571,"o":"m 232 299 l 43 299 l 43 406 l 232 406 l 232 596 l 339 596 l 339 406 l 528 406 l 528 299 l 339 299 l 339 111 l 232 111 z"},"G":{"x_min":0,"x_max":724,"ha":724,"o":"m 361 401 l 644 401 l 644 31 q 575 8 514 -1 q 454 -10 390 -10 q 229 -10 143 85 q 58 180 58 358 q 58 531 157 627 q 256 724 431 724 q 541 724 643 680 l 593 559 q 515 598 430 598 q 332 598 273 532 q 214 466 214 355 q 214 239 261 177 q 309 116 400 116 q 447 116 496 126 l 496 275 l 361 275 z"},"q":{"x_min":0,"x_max":633,"ha":633,"o":"m 304 107 q 361 107 387 139 q 414 172 416 253 l 416 271 q 416 359 389 397 q 362 435 302 435 q 197 435 197 270 q 197 188 223 147 q 249 107 304 107 z m 251 -10 q 154 -10 100 65 q 45 139 45 272 q 45 406 101 481 q 157 556 254 556 q 306 556 344 537 q 383 517 412 476 l 416 476 l 429 546 l 555 546 l 555 -240 l 406 -240 l 406 -11 q 406 19 412 71 l 406 71 q 382 31 342 11 q 303 -10 251 -10 z"},"d":{"x_min":0,"x_max":633,"ha":633,"o":"m 251 -10 q 155 -10 100 65 q 45 140 45 272 q 45 406 101 481 q 157 556 255 556 q 358 556 412 476 l 417 476 q 406 537 406 585 l 406 760 l 555 760 l 555 0 l 441 0 l 412 71 l 406 71 q 355 -10 251 -10 z m 303 109 q 360 109 387 142 q 414 175 416 255 l 416 271 q 416 359 389 397 q 362 435 301 435 q 251 435 223 393 q 196 351 196 270 q 196 189 224 149 q 251 109 303 109 z"},"1":{"x_min":0,"x_max":571,"ha":571,"o":"m 413 0 l 262 0 l 262 413 l 264 481 l 266 555 q 229 518 214 506 l 132 440 l 59 531 l 289 714 l 413 714 z"},"5":{"x_min":0,"x_max":571,"ha":571,"o":"m 300 456 q 403 456 465 398 q 526 340 526 239 q 526 119 452 55 q 378 -10 241 -10 q 122 -10 49 29 l 49 159 q 87 139 139 126 q 190 113 236 113 q 374 113 374 226 q 374 334 231 334 q 205 334 174 329 q 143 324 123 318 l 63 350 l 90 714 l 477 714 l 477 586 l 222 586 l 209 446 l 226 449 q 256 456 300 456 z"}}}
